<?xml version="1.0" encoding="UTF-8"?>
<svg width="200px" height="200px" viewBox="0 0 200 200" version="1.1" xmlns="http://www.w3.org/2000/svg" xmlns:xlink="http://www.w3.org/1999/xlink">
    <!-- Generator: Sketch 42 (36781) - http://www.bohemiancoding.com/sketch -->
    <title>Artboard 2</title>
    <desc>Created with Sketch.</desc>
    <defs></defs>
    <g id="Page-1" stroke="none" stroke-width="1" fill="none" fill-rule="evenodd">
        <g id="Artboard-2">
            <circle id="Oval-3" fill-opacity="0.199501812" fill="#000000" cx="100" cy="100" r="100"></circle>
            <g id="flaticon1489217605-svg-copy" transform="translate(36.000000, 21.000000)" fill-rule="nonzero">
                <g id="Layer_1">
                    <path d="M116.714196,127.936385 C114.966317,112.1398 92.8536112,99.6447936 65.820986,99.6447936 C38.7883607,99.6447936 16.679503,112.1398 14.9298277,127.936385 L116.714196,127.936385 Z" id="Shape" fill="#148DE0"></path>
                    <path d="M104.043479,124.230798 C104.043479,126.275463 102.386661,127.936385 100.337892,127.936385 L31.3043367,127.936385 C29.2596713,127.936385 27.6025972,126.275463 27.6025972,124.230798 L27.6025972,124.230798 C27.6025972,122.182028 29.2594148,120.52521 31.3043367,120.52521 L100.337892,120.52521 C102.386661,120.524954 104.043479,122.183824 104.043479,124.230798 L104.043479,124.230798 Z" id="Shape" fill="#EAA918"></path>
                    <path d="M100.337892,120.524954 L31.3043367,120.524954 C30.0879519,120.524954 29.0231663,121.116986 28.3482806,122.020168 C29.0231663,122.923351 30.0879519,123.515383 31.3043367,123.515383 L100.337892,123.515383 C101.554277,123.515383 102.623166,122.923351 103.298052,122.020168 C102.62291,121.116986 101.55402,120.524954 100.337892,120.524954 Z" id="Shape" fill="#FFBA31"></path>
                    <path d="M27.4086733,110.020232 C37.7961683,113.63091 51.1923046,114.976577 65.8230381,114.976577 C80.4537715,114.976577 93.8499078,113.63091 104.237403,110.020232 C94.8882725,103.665635 81.1507174,99.6447936 65.8230381,99.6447936 C50.4953587,99.6447936 36.7575471,103.665635 27.4086733,110.020232 Z" id="Shape" fill="#1758DD"></path>
                    <path d="M125.590317,75.7621483 C125.590317,100.071118 98.8303647,106.894621 65.8230381,106.894621 C32.8157114,106.894621 6.05575952,100.071375 6.05575952,75.7621483 C6.05575952,51.4490741 32.8157114,31.7406653 65.8230381,31.7406653 C98.8303647,31.7406653 125.590317,51.4490741 125.590317,75.7621483 Z" id="Shape" fill="#C6BD8B"></path>
                    <path d="M125.590317,75.7621483 C125.590317,100.071118 98.8303647,106.894621 65.8230381,106.894621 C32.8157114,106.894621 6.05575952,100.071375 6.05575952,75.7621483 C6.05575952,51.4490741 32.8157114,37.8528577 65.8230381,37.8528577 C98.8303647,37.8528577 125.590317,51.4490741 125.590317,75.7621483 Z" id="Shape" fill="#C98D61"></path>
                    <path d="M125.590317,75.7621483 C125.590317,100.071118 98.8303647,106.894621 65.8230381,106.894621 C32.8157114,106.894621 6.05575952,100.071375 6.05575952,75.7621483 C6.05575952,51.4490741 32.8157114,64.6653948 65.8230381,64.6653948 C98.8303647,64.6653948 125.590317,51.4490741 125.590317,75.7621483 Z" id="Shape" fill="#E8A874"></path>
                    <g id="Group" transform="translate(36.681363, 76.953908)" fill="#082856">
                        <ellipse id="Oval" cx="5.5216994" cy="5.43345892" rx="5.36856112" ry="5.36856112"></ellipse>
                        <ellipse id="Oval" cx="52.7657555" cy="5.43345892" rx="5.36856112" ry="5.36856112"></ellipse>
                    </g>
                    <path d="M47.5716232,82.3873667 C47.5716232,85.355479 45.1691222,87.75798 42.2051142,87.75798 C39.237002,87.75798 36.834501,85.355479 36.834501,82.3873667" id="Shape" fill="#000000"></path>
                    <path d="M94.8136273,82.3873667 C94.8136273,85.355479 92.4111263,87.75798 89.4471182,87.75798 C86.479006,87.75798 84.076505,85.355479 84.076505,82.3873667" id="Shape" fill="#000000"></path>
                    <path d="M85.022012,95.2684248 C85.022012,98.3396553 76.5014188,100.82501 65.9925932,100.82501 C55.4837675,100.82501 46.9672786,98.3396553 46.9672786,95.2684248 C46.9672786,92.2012986 55.4837675,94.7633507 65.9925932,94.7633507 C76.5014188,94.7633507 85.022012,92.2030942 85.022012,95.2684248 Z" id="Shape" fill="#CE416F"></path>
                    <path d="M27.6936593,39.64101 C27.6936593,39.64101 37.9216032,39.8146693 39.6471663,18.5910381 C40.6170421,6.75680962 50.3014349,-7.9162485 64.5966493,5.07767535 C78.8859639,18.0736513 75.5115351,1.6993988 84.3432786,6.37691383 C93.1832305,11.056481 91.1039359,36.5233507 100.461018,40.4187575 C109.8181,44.3182685 57.0600401,49.7758397 57.0600401,49.7758397 L30.8092665,40.939992 L27.6936593,39.64101 Z" id="Shape" fill="#EAA918"></path>
                    <path d="M84.3432786,13.7842405 C75.5115351,9.10877756 78.8857074,25.4812345 64.5966493,12.485002 C50.303487,-0.510973948 40.6190942,14.1620842 39.6471663,25.9983647 C38.9763848,34.2501323 37.0184208,39.25701 34.8767936,42.3082325 L57.0602966,49.7740441 C57.0602966,49.7740441 84.6649459,46.917002 96.394004,43.8619319 C91.5020441,35.4221403 91.5887455,17.6211623 84.3432786,13.7842405 Z" id="Shape" fill="#C98909"></path>
                    <path d="M104.445435,42.841523 C104.445435,47.2927936 100.842709,50.8993667 96.383487,50.8993667 L34.541018,50.8993667 C30.0897475,50.8993667 26.4831743,47.2927936 26.4831743,42.841523 L26.4831743,42.841523 C26.4831743,38.3943567 30.0897475,34.7877836 34.541018,34.7877836 L96.383487,34.7877836 C100.842966,34.7877836 104.445435,38.3943567 104.445435,42.841523 L104.445435,42.841523 Z" id="Shape" fill="#723E14"></path>
                    <path d="M85.6060922,42.841523 C85.6060922,47.2927936 83.7350862,50.8993667 81.4398076,50.8993667 L49.4890581,50.8993667 C47.1876232,50.8993667 45.3248257,47.2927936 45.3248257,42.841523 L45.3248257,42.841523 C45.3248257,38.3943567 47.1878798,34.7877836 49.4890581,34.7877836 L81.4377555,34.7877836 C83.7350862,34.7877836 85.6060922,38.3943567 85.6060922,42.841523 L85.6060922,42.841523 Z" id="Shape" fill="#49290A"></path>
                    <path d="M127.891752,39.285483 C127.891752,51.3541643 99.2769539,61.1293627 63.9722966,61.1293627 C28.6594309,61.1293627 0.0446332665,51.3539078 0.0446332665,39.285483 C0.0446332665,27.2209058 28.6594309,43.1447214 63.9722966,43.1447214 C99.2769539,43.1447214 127.891752,27.2209058 127.891752,39.285483 Z" id="Shape" fill="#EAA918"></path>
                    <path d="M63.9722966,43.1447214 C35.1089379,43.1447214 10.7432786,32.5248257 2.79650501,35.2241122 C10.7453307,44.2054028 35.1089379,50.7377635 63.9722966,50.7377635 C92.8274469,50.7377635 117.19721,44.2074549 125.148088,35.2241122 C117.19721,32.5248257 92.8274469,43.1447214 63.9722966,43.1447214 Z" id="Shape" fill="#C98909"></path>
                    <path d="M33.349002,127.936385 L33.349002,106.339014 C33.349002,104.318461 31.7083447,107.226036 29.6877916,107.226036 C27.6631343,107.226036 26.0265812,108.864641 26.0265812,110.887246 L26.0265812,127.936385 L33.349002,127.936385 L33.349002,127.936385 Z" id="Shape" fill="#BF8208"></path>
                    <path d="M29.6857395,107.22578 C27.6610822,107.22578 26.0245291,108.864385 26.0245291,110.88699 L26.0245291,121.874725 L33.349002,121.874725 L33.349002,106.338758 C33.349002,104.318204 31.7062926,107.22578 29.6857395,107.22578 Z" id="Shape" fill="#EAA918"></path>
                    <path d="M98.2970741,127.936385 L98.2970741,106.339014 C98.2970741,104.318461 99.9377315,107.226036 101.958285,107.226036 C103.982942,107.226036 105.619495,108.864641 105.619495,110.887246 L105.619495,127.936385 L98.2970741,127.936385 L98.2970741,127.936385 Z" id="Shape" fill="#BF8208"></path>
                    <path d="M101.960337,107.22578 C103.984994,107.22578 105.621547,108.864385 105.621547,110.88699 L105.621547,121.874725 L98.2970741,121.874725 L98.2970741,106.338758 C98.2970741,104.318204 99.9397836,107.22578 101.960337,107.22578 Z" id="Shape" fill="#EAA918"></path>
                </g>
            </g>
            <path d="M72.688,158.048 C73.12,158.048 73.336,158.264 73.336,158.696 L73.336,164 C73.336,164.432 73.12,164.648 72.688,164.648 L55.528,164.648 C55.096,164.648 54.88,164.432 54.88,164 L54.88,158.696 C54.88,158.264 55.096,158.048 55.528,158.048 L60.304,158.048 L60.304,157.136 C60.304,156.704 60.52,156.488 60.952,156.488 L61.96,156.488 C62.392,156.488 62.608,156.704 62.608,157.136 L62.608,158.048 L65.608,158.048 L65.608,157.136 C65.608,156.704 65.824,156.488 66.256,156.488 L67.264,156.488 C67.696,156.488 67.912,156.704 67.912,157.136 L67.912,158.048 L72.688,158.048 Z M60.304,161 L60.304,159.152 L57.232,159.152 L57.232,161 L60.304,161 Z M65.608,161 L65.608,159.152 L62.608,159.152 L62.608,161 L65.608,161 Z M70.984,161 L70.984,159.152 L67.912,159.152 L67.912,161 L70.984,161 Z M60.304,163.712 L60.304,161.816 L57.232,161.816 L57.232,163.712 L60.304,163.712 Z M65.608,163.712 L65.608,161.816 L62.608,161.816 L62.608,163.712 L65.608,163.712 Z M70.984,163.712 L70.984,161.816 L67.912,161.816 L67.912,163.712 L70.984,163.712 Z M73.24,165.848 C73.672,165.848 73.888,166.04 73.888,166.376 C73.888,166.712 73.672,166.904 73.24,166.904 L56.968,166.904 L56.968,169.712 C56.968,170.24 56.968,170.528 56.92,170.816 L73.48,170.816 C73.912,170.816 74.128,171.032 74.128,171.464 C74.128,171.752 73.912,171.92 73.48,171.92 L65.608,171.92 C66.4,173.048 67.24,173.816 68.128,174.392 C68.968,173.96 69.88,173.312 70.888,172.52 C71.224,172.256 71.56,172.28 71.824,172.592 L72.064,172.856 C72.352,173.168 72.328,173.504 71.944,173.744 C71.248,174.224 70.48,174.656 69.52,175.184 C70.936,175.856 72.256,176.264 73.672,176.552 C74.104,176.624 74.272,176.912 74.128,177.344 C74.008,177.728 73.744,177.896 73.336,177.824 C68.848,177.056 64.816,174.584 63.328,171.92 L61.216,171.92 L61.216,176 C62.872,175.808 64.336,175.616 65.368,175.424 C65.8,175.352 66.064,175.544 66.088,176 C66.112,176.384 65.92,176.6 65.512,176.672 C62.728,177.104 59.584,177.488 56.968,177.68 C56.56,177.704 56.32,177.488 56.296,177.08 C56.272,176.672 56.488,176.408 56.896,176.384 L58.792,176.24 L58.792,171.92 L56.824,171.92 C56.512,174.056 55.912,175.808 54.904,177.368 C54.64,177.752 54.28,177.776 53.968,177.416 L53.392,176.792 C53.128,176.528 53.128,176.24 53.296,175.904 C54.112,174.2 54.616,171.92 54.616,169.28 L54.616,166.496 C54.616,166.064 54.832,165.848 55.264,165.848 L73.24,165.848 Z M71.896,168.32 C72.328,168.32 72.544,168.488 72.544,168.824 C72.544,169.16 72.328,169.328 71.896,169.328 L58.432,169.328 C58,169.328 57.784,169.112 57.784,168.68 C57.784,168.44 58,168.32 58.432,168.32 L71.896,168.32 Z M83.848,162.92 C84.28,162.92 84.496,163.136 84.496,163.568 C84.496,163.928 84.28,164.12 83.848,164.12 L81.856,164.12 L81.856,173.072 C82.096,172.976 82.36,172.856 82.816,172.64 C83.272,172.448 83.584,172.616 83.656,173.072 C83.704,173.432 83.56,173.672 83.2,173.84 C81.328,174.656 79.648,175.28 77.824,175.808 C77.392,175.928 77.104,175.76 77.032,175.328 L77.032,175.28 C76.96,174.896 77.128,174.656 77.536,174.536 C78.064,174.392 78.712,174.176 79.48,173.936 L79.48,164.12 L77.632,164.12 C77.2,164.12 76.984,163.904 76.984,163.472 C76.984,163.112 77.2,162.92 77.632,162.92 L79.48,162.92 L79.48,157.904 C79.48,157.472 79.696,157.256 80.128,157.256 L81.208,157.256 C81.64,157.256 81.856,157.472 81.856,157.904 L81.856,162.92 L83.848,162.92 Z M97.648,164.168 C97.648,164.6 97.432,164.816 97,164.816 L85.6,164.816 C85.168,164.816 84.952,164.6 84.952,164.168 L84.952,158.048 C84.952,157.616 85.168,157.4 85.6,157.4 L97,157.4 C97.432,157.4 97.648,157.616 97.648,158.048 L97.648,164.168 Z M95.224,160.616 L95.224,158.552 L87.304,158.552 L87.304,160.616 L95.224,160.616 Z M95.224,163.808 L95.224,161.672 L87.304,161.672 L87.304,163.808 L95.224,163.808 Z M98.2,166.304 C98.632,166.304 98.848,166.496 98.848,166.88 C98.848,167.264 98.632,167.456 98.2,167.456 L89.344,167.456 C89.056,167.792 88.6,168.344 87.856,169.088 L97.6,169.088 C98.032,169.088 98.248,169.304 98.248,169.736 L98.248,170.072 C98.248,172.064 98.152,173.6 97.96,174.776 C97.6,176.84 96.832,177.632 95.32,177.632 C94.648,177.632 93.784,177.608 92.776,177.536 C92.368,177.512 92.128,177.272 92.128,176.888 C92.104,176.504 92.344,176.288 92.8,176.312 C93.616,176.384 94.264,176.408 94.792,176.408 C94.984,176.408 95.248,176.048 95.512,175.016 C95.728,174.224 95.872,172.64 95.872,170.432 L95.872,170.192 L95.344,170.192 C94.192,172.808 91.576,176.024 88.816,177.92 C88.48,178.16 88.168,178.112 87.904,177.8 L87.736,177.608 C87.472,177.296 87.52,176.984 87.856,176.72 C89.8,175.232 91.984,172.664 93.208,170.192 L91.12,170.192 C89.656,172.376 86.8,175.04 83.968,176.624 C83.608,176.816 83.32,176.768 83.08,176.456 L82.984,176.36 C82.72,176 82.768,175.688 83.152,175.448 C85.048,174.272 87.304,172.28 88.888,170.192 L86.608,170.192 C86.056,170.648 85.264,171.152 83.752,171.848 C83.368,172.04 83.056,171.944 82.864,171.56 L82.816,171.464 C82.624,171.104 82.744,170.792 83.104,170.6 C84.496,169.904 85.72,168.968 87.136,167.456 L84.28,167.456 C83.848,167.456 83.632,167.24 83.632,166.808 C83.632,166.472 83.848,166.304 84.28,166.304 L98.2,166.304 Z M121.888,158.6 L119.464,158.6 L119.464,157.184 C119.464,156.752 119.248,156.536 118.816,156.536 L117.928,156.536 C117.496,156.536 117.28,156.752 117.28,157.184 L117.28,158.6 L112.792,158.6 L112.792,157.184 C112.792,156.752 112.576,156.536 112.144,156.536 L111.208,156.536 C110.776,156.536 110.56,156.752 110.56,157.184 L110.56,158.6 L107.68,158.6 C107.248,158.6 107.032,158.792 107.032,159.152 C107.032,159.584 107.248,159.8 107.68,159.8 L110.56,159.8 L110.56,161.024 C110.56,161.456 110.776,161.672 111.208,161.672 L112.144,161.672 C112.576,161.672 112.792,161.456 112.792,161.024 L112.792,159.8 L117.28,159.8 L117.28,161.024 C117.28,161.456 117.496,161.672 117.928,161.672 L118.816,161.672 C119.248,161.672 119.464,161.456 119.464,161.024 L119.464,159.8 L121.888,159.8 C122.32,159.8 122.536,159.608 122.536,159.248 C122.536,158.816 122.32,158.6 121.888,158.6 Z M106.096,156.968 C106.504,157.04 106.672,157.304 106.6,157.712 C106.216,159.704 105.64,161.552 104.848,163.4 L104.848,177.296 C104.848,177.728 104.632,177.944 104.2,177.944 L103.456,177.944 C103.024,177.944 102.808,177.728 102.808,177.296 L102.808,167.024 C102.424,167.672 102.112,168.176 101.824,168.584 C101.536,169.016 101.152,168.968 100.96,168.464 L100.744,167.912 C100.624,167.6 100.648,167.336 100.84,167.048 C102.328,164.648 103.624,161.312 104.488,157.328 C104.584,156.896 104.848,156.728 105.256,156.8 L106.096,156.968 Z M122.128,162.56 C122.56,162.56 122.776,162.752 122.776,163.136 C122.776,163.52 122.56,163.712 122.128,163.712 L108.712,163.712 L108.712,167.408 C108.712,171.104 108.112,174.248 106.816,177.128 C106.6,177.584 106.192,177.608 105.904,177.224 L105.376,176.528 C105.16,176.24 105.136,175.976 105.256,175.64 C106.216,173.072 106.6,170.408 106.6,166.28 L106.6,163.208 C106.6,162.776 106.816,162.56 107.248,162.56 L122.128,162.56 Z M122.296,175.4 C122.296,177.44 122.152,177.704 120.064,177.704 C119.608,177.704 119.008,177.68 118.408,177.656 C118,177.632 117.808,177.416 117.784,177.008 C117.76,176.624 118,176.408 118.456,176.432 C119.08,176.456 119.536,176.48 119.776,176.48 C119.848,176.48 119.92,176.504 119.944,176.528 L119.944,176.432 L120.04,176.264 C120.04,176.264 120.064,175.808 120.064,175.304 L120.064,173.576 L116.776,173.576 L116.776,176.936 C116.776,177.368 116.56,177.584 116.128,177.584 L115.288,177.584 C114.856,177.584 114.64,177.368 114.64,176.936 L114.64,173.576 L111.424,173.576 L111.424,177.152 C111.424,177.584 111.208,177.8 110.776,177.8 L109.888,177.8 C109.456,177.8 109.24,177.584 109.24,177.152 L109.24,166.136 C109.24,165.704 109.456,165.488 109.888,165.488 L121.648,165.488 C122.08,165.488 122.296,165.704 122.296,166.136 L122.296,175.4 Z M114.64,169.04 L114.64,166.592 L111.424,166.592 L111.424,169.04 L114.64,169.04 Z M120.064,169.04 L120.064,166.592 L116.776,166.592 L116.776,169.04 L120.064,169.04 Z M114.64,172.568 L114.64,170.048 L111.424,170.048 L111.424,172.568 L114.64,172.568 Z M120.064,172.568 L120.064,170.048 L116.776,170.048 L116.776,172.568 L120.064,172.568 Z M145.792,159.08 L137.224,159.08 L137.224,157.256 C137.224,156.824 137.008,156.608 136.576,156.608 L135.424,156.608 C134.992,156.608 134.776,156.824 134.776,157.256 L134.776,159.08 L126.232,159.08 C125.8,159.08 125.584,159.296 125.584,159.704 C125.584,160.136 125.8,160.352 126.232,160.352 L128.44,160.352 L128.44,163.52 C128.44,164.744 128.416,165.128 128.632,165.8 C128.728,166.112 128.92,166.376 129.712,166.688 C130.264,166.904 130.84,166.928 132.04,167 C133.696,167.072 135.16,167.12 136.432,167.12 C139.072,167.12 141.856,167.024 144.712,166.808 C145.144,166.784 145.36,166.544 145.336,166.16 C145.312,165.752 145.048,165.536 144.64,165.56 C141.688,165.776 139,165.848 136.432,165.848 C135.28,165.848 133.936,165.8 132.424,165.728 C130.816,165.632 130.912,165.536 130.912,163.52 L130.912,160.352 L145.792,160.352 C146.224,160.352 146.44,160.136 146.44,159.728 C146.44,159.296 146.224,159.08 145.792,159.08 Z M135.448,168.344 C135.784,168.104 136.072,168.104 136.36,168.392 C137.512,169.592 138.52,170.72 139.312,171.8 C139.576,172.136 139.504,172.424 139.192,172.688 L138.688,173.096 C138.352,173.36 138.016,173.312 137.776,172.952 C136.864,171.704 135.928,170.552 134.992,169.544 C134.704,169.232 134.704,168.896 135.064,168.632 L135.448,168.344 Z M133.096,175.832 C133.168,176.216 134.872,176.24 136.312,176.24 C137.296,176.24 138.064,176.168 138.736,176.144 C139.864,176.096 140.2,175.568 140.368,174.824 C140.464,174.464 140.536,173.72 140.584,173.192 C140.608,172.76 140.872,172.544 141.304,172.616 L142.288,172.76 C142.696,172.808 142.888,173.048 142.864,173.456 C142.792,174.152 142.72,175.232 142.552,175.784 C142.336,176.576 141.952,177.32 139.384,177.392 C138.472,177.416 137.464,177.512 136.408,177.512 C134.656,177.512 131.584,177.416 131.104,176.84 C130.744,176.384 130.648,175.688 130.648,174.368 L130.648,169.544 C130.648,169.112 130.864,168.896 131.296,168.896 L132.448,168.896 C132.88,168.896 133.096,169.112 133.096,169.544 L133.096,175.832 Z M143.056,169.16 C143.416,168.968 143.728,169.04 143.92,169.4 C145.048,171.368 145.984,173.312 146.752,175.256 C146.896,175.64 146.776,175.904 146.392,176.096 L145.6,176.48 C145.192,176.672 144.904,176.528 144.736,176.12 C143.968,174.056 143.056,172.136 142.12,170.408 C141.904,170.024 142,169.712 142.384,169.52 L143.056,169.16 Z M129.472,169.832 L128.584,169.52 C128.176,169.376 127.888,169.544 127.768,169.952 C127.168,171.944 126.4,173.696 125.488,175.16 C125.248,175.52 125.32,175.808 125.656,176.048 L126.256,176.48 C126.592,176.72 126.928,176.696 127.168,176.336 C128.392,174.536 129.304,172.664 129.904,170.648 C130.024,170.264 129.856,169.976 129.472,169.832 Z" id="農場備忘" fill="#FFFFFF"></path>
        </g>
    </g>
</svg>